<?xml version="1.0" encoding="UTF-8" standalone="no"?>
<!-- Created with Inkscape (http://www.inkscape.org/) -->

<svg
   version="1.1"
   id="svg2"
   width="233.88095"
   height="76.480003"
   viewBox="0 0 233.88095 76.480004"
   xmlns="http://www.w3.org/2000/svg"
   xmlns:svg="http://www.w3.org/2000/svg">
  <defs
     id="defs6" />
  <g
     id="g8"
     transform="translate(-0.31999999,-150.9588)">
    <g
       id="g30490"
       transform="translate(0,150.6388)">
      <path
         style="fill:#00b0ca;stroke-width:0.32"
         d="M 68.159998,38.56 V 0.32 h 2.804618 2.804617 l 4.150765,4.1600001 4.150765,4.16 27.204617,0.077288 L 136.48,8.7945752 109.39352,8.9572878 82.307038,9.1200001 98.73906,25.92 l 16.43202,16.800001 0.0145,17.04 0.0144,17.04 h -23.520002 -23.52 z"
         id="path30498" />
      <path
         style="fill:#008aa9;stroke-width:0.32"
         d="M 115.2,59.799233 V 42.798461 L 104.72,32.07801 C 98.955998,26.181761 91.526193,18.568107 88.209323,15.158779 L 82.178648,8.9600001 H 109.24932 136.32 v 33.9200009 33.92 H 125.76 115.2 Z m 72.75687,7.880768 c 9.6e-4,-1.76 0.0546,-2.439175 0.11941,-1.509274 0.0649,0.929901 0.0642,2.369901 -0.002,3.2 -0.0657,0.830099 -0.11873,0.06927 -0.1179,-1.690726 z m 2.56283,-0.32 c 6.4e-4,-1.936 0.0534,-2.686743 0.11712,-1.668317 0.0637,1.018426 0.0631,2.602426 -0.001,3.52 -0.0644,0.917574 -0.11653,0.08432 -0.11581,-1.851683 z m 13.12828,-1.28 c 3.2e-4,-2.64 0.05,-3.677418 0.11014,-2.305373 0.0601,1.372042 0.0598,3.532042 -9.6e-4,4.8 -0.0606,1.267955 -0.10978,0.145373 -0.10933,-2.494627 z m 10.7112,4.08 c -0.39804,-0.507539 -0.38672,-0.518858 0.12081,-0.120819 0.53304,0.418038 0.70256,0.680819 0.43919,0.680819 -0.0665,0 -0.31845,-0.252 -0.56,-0.56 z M 174.21266,68.68417 c -0.092,-0.239708 -0.12132,-1.283708 -0.0652,-2.32 l 0.10204,-1.884169 0.15525,2.32072 c 0.15577,2.328563 0.1186,2.693069 -0.19209,1.883449 z m -16.6425,-4.20417 0.0298,-0.96 3.04,-0.02013 3.04,-0.0201 -2.9406,0.111865 c -2.92005,0.111082 -2.94151,0.117936 -3.06984,0.980112 -0.11862,0.796967 -0.12678,0.789434 -0.0994,-0.09175 z m -6.78778,0 c 0.007,-0.528 0.0782,-0.705261 0.15937,-0.393911 0.0811,0.311351 0.0758,0.743351 -0.0119,0.96 -0.0877,0.21665 -0.15404,-0.03809 -0.14752,-0.566089 z M 166.4,62.599182 c 0,-0.06645 0.252,-0.318448 0.56,-0.56 0.50754,-0.398039 0.51885,-0.38672 0.12082,0.120819 -0.41804,0.53304 -0.68082,0.702553 -0.68082,0.439181 z m 6.67918,-0.439181 c -0.39804,-0.507539 -0.38672,-0.518858 0.12082,-0.120819 0.308,0.241552 0.56,0.493552 0.56,0.56 0,0.263372 -0.26278,0.09386 -0.68082,-0.439181 z m 5.6084,-0.16 c -0.12661,-0.22 -0.11236,-0.293248 0.0317,-0.162778 0.14402,0.130474 0.49111,0.05847 0.7713,-0.16 0.45075,-0.351456 0.45884,-0.332701 0.0703,0.162778 -0.52345,0.667446 -0.5757,0.677021 -0.87324,0.16 z m 10.7116,-0.16 c -0.39804,-0.507539 -0.38672,-0.518858 0.12082,-0.120819 0.308,0.241552 0.56,0.493552 0.56,0.56 0,0.263372 -0.26279,0.09386 -0.68082,-0.439181 z M 161.52,61.534167 c 0.396,-0.07627 1.044,-0.07627 1.44,0 0.396,0.07627 0.072,0.138679 -0.72,0.138679 -0.792,0 -1.116,-0.06241 -0.72,-0.138679 z M 35.250524,51.199973 c 0,-0.44 0.07263,-0.62 0.161405,-0.4 0.08877,0.22 0.08877,0.58 0,0.8 -0.08877,0.22 -0.161405,0.04 -0.161405,-0.4 z m 141.795566,0.09824 c 0.31135,-0.08113 0.74335,-0.0758 0.96,0.01187 0.21665,0.08766 -0.0381,0.154038 -0.56609,0.147517 -0.528,-0.0065 -0.70526,-0.07824 -0.39391,-0.159373 z M 180.48,50.439181 c 0,-0.06645 0.252,-0.318448 0.56,-0.56 0.50753,-0.398038 0.51885,-0.38672 0.12081,0.12082 -0.41803,0.53304 -0.68081,0.702553 -0.68081,0.43918 z m 1.30526,-4.865846 c 0.0154,-0.372784 0.0912,-0.448608 0.19333,-0.193334 0.0924,0.230998 0.0811,0.506998 -0.0252,0.613334 -0.10633,0.106333 -0.18196,-0.08267 -0.16807,-0.42 z M 176.08,45.20689 c 0.66,-0.06904 1.74,-0.06904 2.4,0 0.66,0.06904 0.12,0.125523 -1.2,0.125523 -1.32,0 -1.86,-0.05648 -1.2,-0.125523 z m 0.8,-1.898819 c 0.22,-0.08877 0.58,-0.08877 0.8,0 0.22,0.08877 0.04,0.161405 -0.4,0.161405 -0.44,0 -0.62,-0.07263 -0.4,-0.161405 z m -7.00082,-0.98807 c -0.39804,-0.50754 -0.38672,-0.518858 0.12082,-0.12082 0.308,0.241552 0.56,0.493552 0.56,0.56 0,0.263373 -0.26278,0.09386 -0.68082,-0.43918 z M 49.409596,39.28 l -0.609597,-0.72 0.72,0.609597 c 0.676621,0.572871 0.865677,0.830404 0.609597,0.830404 -0.06072,0 -0.384724,-0.324001 -0.72,-0.720001 z M 31.519999,39.04 c 0.318556,-0.352 0.651194,-0.64 0.739194,-0.64 0.088,0 -0.100637,0.288 -0.419194,0.64 -0.318555,0.352 -0.651192,0.64 -0.739192,0.64 -0.088,0 0.100637,-0.288 0.419192,-0.64 z M 153.21519,37.52168 c 1.46036,-0.05943 3.76436,-0.0591 5.12,6.4e-4 1.35564,0.05983 0.16081,0.108458 -2.65519,0.108052 -2.816,-3.2e-4 -3.92517,-0.04936 -2.46481,-0.108788 z M 53.58797,33.84 l -1.587971,-1.68 1.68,1.587972 C 55.241084,35.223543 55.506751,35.52 55.26797,35.52 c -0.05062,0 -0.806618,-0.756 -1.68,-1.68 z m -8.978374,0.32 -0.609597,-0.72 0.72,0.609597 C 45.39662,34.622468 45.585676,34.88 45.329596,34.88 c -0.06072,0 -0.384723,-0.324 -0.72,-0.72 z M 151.17592,24.64 c 0,-3.784 0.0463,-5.332 0.10286,-3.44 0.0566,1.892 0.0566,4.988 0,6.88 -0.0566,1.892 -0.10286,0.344 -0.10286,-3.44 z m 2.55034,2.4 c 6.4e-4,-2.464 0.0507,-3.4297 0.11162,-2.146 0.0609,1.2837 0.0605,3.299701 -9.6e-4,4.48 -0.0613,1.180301 -0.11116,0.13 -0.11066,-2.334 z m 27.67292,2.8 c -0.39804,-0.507538 -0.38672,-0.518856 0.12082,-0.120817 0.308,0.24155 0.56,0.49355 0.56,0.56 0,0.263371 -0.26279,0.09386 -0.68082,-0.439183 z m -23.39545,0.01368 c 0.39805,-0.07654 0.97405,-0.07364 1.28,0.0065 0.30595,0.08009 -0.0197,0.142718 -0.72373,0.139167 -0.704,-0.0036 -0.95432,-0.06908 -0.55627,-0.145625 z m 74.57626,-0.312276 c 0.231,-0.09244 0.50701,-0.08107 0.61334,0.02526 0.10633,0.106333 -0.0827,0.181965 -0.42,0.16807 -0.37279,-0.01535 -0.44861,-0.09118 -0.19334,-0.193333 z M 42.879999,26.72 c 0.41336,-0.44 0.823562,-0.8 0.911562,-0.8 0.088,0 -0.178202,0.36 -0.591562,0.8 -0.41336,0.44 -0.823562,0.8 -0.911562,0.8 -0.088,0 0.178202,-0.36 0.591562,-0.8 z M 190.32,26.974166 c 0.396,-0.07627 1.044,-0.07627 1.44,0 0.396,0.07627 0.072,0.138678 -0.72,0.138678 -0.792,0 -1.116,-0.0624 -0.72,-0.138678 z M 207.80625,22.24 c 6.4e-4,-2.464 0.0507,-3.4297 0.11163,-2.146 0.0609,1.2837 0.0605,3.2997 -9.6e-4,4.48 -0.0613,1.1803 -0.11116,0.13 -0.11067,-2.334 z m -25.66387,2.56 c 0.007,-0.528 0.0782,-0.705259 0.15937,-0.393909 0.0811,0.311349 0.0758,0.743349 -0.0119,0.96 -0.0876,0.21665 -0.15402,-0.03809 -0.1475,-0.566091 z m 51.85185,-2.08 c 0,-0.616 0.0659,-0.868 0.14635,-0.56 0.0805,0.308 0.0805,0.812 0,1.12 -0.0805,0.308 -0.14635,0.056 -0.14635,-0.56 z m -58.60897,-0.826666 c 0.0154,-0.372782 0.0912,-0.448608 0.19333,-0.193334 0.0924,0.231 0.0811,0.507 -0.0252,0.613334 -0.10633,0.106333 -0.18196,-0.08267 -0.16807,-0.42 z M 47.839999,21.44 c 0.318557,-0.352 0.651193,-0.64 0.739193,-0.64 0.088,0 -0.100636,0.288 -0.419193,0.64 -0.318557,0.352 -0.651194,0.64 -0.739194,0.64 -0.088,0 0.100637,-0.288 0.419194,-0.64 z M 229.18238,20 c 0.007,-0.528 0.0782,-0.705259 0.15937,-0.39391 0.0811,0.31135 0.0758,0.74335 -0.0119,0.96 C 229.24225,20.782741 229.17583,20.528 229.18235,20 Z M 17.2,8.7200603 c 9.371999,-0.047118 24.707999,-0.047118 34.079999,0 9.372,0.047118 1.704,0.085669 -17.04,0.085669 C 15.496,8.8057288 7.8279998,8.767178 17.2,8.7200603 Z"
         id="path30496" />
      <path
         style="fill:#1f1e5d;stroke-width:0.32"
         d="M 0.31999999,42.880001 V 8.9600001 H 34.239999 68.159998 v 33.9200009 33.92 H 34.239999 0.31999999 Z M 15.68,64.480001 v -4.96 h 1.688248 1.688248 l 3.671751,4.948294 3.671752,4.948291 17.2,0.01171 17.2,0.01171 v -2.72 -2.72 h -4.64 -4.64 v -7.84 -7.84 h 4.64 4.64 V 44.758573 41.197146 L 55.160792,35.314624 49.521583,29.4321 55.160792,23.737458 c 4.498707,-4.542931 5.639207,-5.868857 5.639207,-6.55605 V 16.32 l -4.08,0.02644 -4.08,0.02645 -5.12,5.471332 -5.12,5.471332 -0.08756,-5.497776 L 42.224885,16.32 h -7.64854 -7.648543 l -0.103901,8.24 c -0.116633,9.2497 -0.200849,9.633364 -2.416143,11.007236 -0.915595,0.56783 -1.672217,0.749078 -3.127759,0.74926 C 18.804286,36.316807 17.37088,35.52032 16.4,33.604874 15.7109,32.245354 15.68,31.843958 15.68,24.252196 V 16.32 H 11.65773 7.6354603 l 0.1109222,9.04 c 0.1024823,8.352125 0.1616544,9.149757 0.7776365,10.482404 1.357462,2.936806 3.789613,4.988512 7.441879,6.277798 l 2.114102,0.746301 -5.2,0.0067 -5.2000002,0.0067 v 13.28 13.28 H 11.68 h 4 z M 31.10177,63.41003 c -1.638027,-2.140682 -2.899617,-4.019351 -2.803535,-4.174813 0.09608,-0.155466 0.659586,-0.373629 1.252231,-0.48481 1.43641,-0.269472 3.719738,-1.831827 4.6052,-3.151085 0.939408,-1.399632 1.419386,-4.001165 1.076666,-5.835651 l -0.269706,-1.44367 h 4.278688 4.278685 v 7.84 7.84 h -4.623277 -4.623276 l -0.09672,1.651091 -0.09672,1.651091 z M 15.68,51.200001 v -2.88 l 4.56,0.0013 c 3.914965,9.6e-4 4.700997,0.08717 5.55677,0.609008 1.181973,0.720742 1.527036,1.994041 0.928554,3.426409 -0.591349,1.415213 -1.802168,1.723303 -6.773076,1.723303 H 15.68 Z M 33.075583,45.466925 C 31.79928,44.305114 28.968974,43.241297 26.455235,42.978557 l -1.955056,-0.204342 1.593651,-0.541699 c 3.646095,-1.239347 6.14152,-3.127463 7.476329,-5.656816 l 0.641555,-1.2157 0.01414,5.520001 c 0.0078,3.036 -0.02186,5.515779 -0.06586,5.51062 -0.044,-0.0052 -0.531987,-0.420822 -1.084416,-0.923696 z M 42.254338,37.2 l 0.01434,-5.68 1.345661,1.484711 c 0.740115,0.816589 3.037661,3.281613 5.105661,5.47783 2.068,2.196218 3.76,4.084096 3.76,4.19529 3e-6,0.111194 -2.303997,0.20217 -5.119997,0.20217 h -5.12 L 42.254335,37.2 Z M 154.4,70.438167 c -2.33213,-1.070915 -3.36,-2.97296 -3.36,-6.217558 0,-2.555203 0.93328,-4.469091 2.83115,-5.805863 2.72648,-1.920409 7.49479,-1.30392 8.99911,1.163485 0.94872,1.556093 0.84272,1.86177 -0.64561,1.86177 -0.99321,0 -1.45983,-0.191216 -2.0005,-0.819786 -0.95678,-1.112323 -2.88194,-1.348237 -4.35943,-0.534211 -2.91961,1.608573 -3.0532,6.711597 -0.2157,8.239693 2.197,1.183161 5.63098,-0.09965 5.63098,-2.103539 0,-0.540797 -0.23016,-0.622157 -1.76,-0.622157 -1.74222,0 -1.76,-0.0097 -1.76,-0.96 v -0.96 h 3.05048 3.05048 l -0.0905,3.6 -0.0905,3.6 -0.9038,0.103552 c -0.69398,0.07951 -0.94409,-0.0505 -1.07732,-0.56 -0.0954,-0.364954 -0.19829,-0.663552 -0.22854,-0.663552 -0.0303,0 -0.61991,0.288 -1.31034,0.64 -1.584,0.807568 -4.04892,0.823901 -5.76,0.03817 z m 11.97538,-0.333552 c -1.04243,-1.042429 -1.16159,-1.858969 -0.46722,-3.201728 0.56322,-1.089145 1.00789,-1.287984 3.6373,-1.626441 1.11401,-0.143396 2.10552,-0.340762 2.20335,-0.438596 0.0978,-0.09783 -0.0609,-0.542371 -0.35284,-0.987862 -0.6891,-1.051699 -1.87594,-1.05609 -2.6988,-0.01 -0.86707,1.102301 -2.61717,1.142333 -2.61717,0.05987 0,-0.40817 0.44,-1.161677 0.98101,-1.68 0.88022,-0.843306 1.19525,-0.939869 3.06625,-0.939869 1.95069,0 2.14548,0.06743 3.01899,1.04505 0.87675,0.981254 0.93375,1.211388 0.93375,3.770041 0,2.127021 0.10533,2.765415 0.48,2.909187 0.27361,0.104996 0.48,0.582253 0.48,1.109959 0,0.750029 -0.13835,0.925763 -0.7288,0.925763 -0.40084,0 -1.06656,-0.236579 -1.47939,-0.525731 -0.6962,-0.487639 -0.81506,-0.487639 -1.64057,0 -0.4895,0.289152 -1.56285,0.525731 -2.38523,0.525731 -1.22597,0 -1.66369,-0.168451 -2.43063,-0.935386 z m 4.37671,-1.229513 c 0.34877,-0.23288 1.08791,-1.465376 1.08791,-1.814064 0,-0.315392 -2.57547,-0.195277 -3.22104,0.15022 -0.60471,0.323629 -0.83111,1.26993 -0.40563,1.695408 0.28585,0.285856 2.09711,0.263335 2.53876,-0.03155 z M 176.32,66.099319 v -4.979318 h 1.08267 c 0.83419,0 1.12342,0.155795 1.26019,0.678809 l 0.17752,0.678807 0.86296,-0.678807 c 1.09579,-0.861952 2.68915,-0.868531 3.7735,-0.01558 l 0.84316,0.663226 0.84315,-0.663226 c 1.28517,-1.010912 3.13546,-0.893843 4.30146,0.27216 0.93468,0.934682 0.93539,0.938407 0.93539,4.96 v 4.024615 h -1.09169 -1.09169 L 188.10831,67.5078 c -0.11702,-3.81616 -0.26538,-4.133466 -1.93706,-4.142896 -1.25787,-0.0071 -1.53125,0.791571 -1.53125,4.473379 v 3.240355 l -1.2,-0.09931 -1.2,-0.09932 -0.0919,-3.34152 c -0.0505,-1.837834 -0.24816,-3.529834 -0.43918,-3.76 -0.19102,-0.230163 -0.74405,-0.41848 -1.22894,-0.41848 -0.4849,0 -1.03793,0.188317 -1.22895,0.41848 -0.19102,0.230166 -0.38865,1.922166 -0.43918,3.76 l -0.0919,3.34152 -1.2,0.09932 -1.2,0.09931 z m 16.21333,4.727347 C 192.416,70.709335 192.32,67.613335 192.32,63.946666 v -6.666665 h 1.28 1.28 v 2.375475 2.375472 l 0.98972,-0.493741 c 1.35904,-0.677974 3.60615,-0.396221 4.67144,0.585731 2.2619,2.084948 2.24029,5.847776 -0.0457,7.957063 -0.71767,0.662198 -1.18751,0.8 -2.72764,0.8 -1.33879,0 -2.03813,-0.160647 -2.49355,-0.572794 -0.6104,-0.552397 -0.63901,-0.549549 -0.80364,0.08 -0.16696,0.638458 -1.44775,0.928999 -1.93729,0.439459 z m 6.4942,-2.727004 c 0.43787,-0.470004 0.65247,-1.13426 0.65247,-2.019661 0,-1.705303 -0.89131,-2.72 -2.38924,-2.72 -1.3395,0 -2.41076,1.208678 -2.41076,2.72 0,2.359376 2.63543,3.64271 4.14753,2.019661 z M 203.84,66.080001 v -4.96 h 1.12 1.12 v 4.96 4.96 h -1.12 -1.12 z m 5.28,4.60912 c -2.45929,-1.416733 -1.66063,-4.772467 1.24424,-5.227914 0.63567,-0.09966 1.6687,-0.261408 2.29562,-0.359433 0.9318,-0.145693 1.12164,-0.300365 1.04,-0.847319 -0.0549,-0.368 -0.32958,-0.813005 -0.61034,-0.988896 -0.72818,-0.456198 -2.24737,0.01005 -2.44062,0.749015 -0.12686,0.485123 -0.44232,0.625427 -1.40623,0.625427 -1.37003,0 -1.47482,-0.222858 -0.75726,-1.610474 1.20304,-2.326416 5.43719,-2.587059 7.21562,-0.444176 0.28584,0.344419 0.51463,1.628423 0.6167,3.461101 0.15282,2.744077 0.20524,2.919642 0.90114,3.018278 0.59249,0.08398 0.71928,0.274157 0.64,0.96 -0.13052,1.129008 -1.57389,1.346327 -2.82051,0.42466 -0.79377,-0.586858 -0.91227,-0.59834 -1.37719,-0.133424 -0.63126,0.631267 -3.66096,0.880224 -4.54117,0.373155 z m 4.0548,-2.098717 c 0.32186,-0.291277 0.58519,-0.795277 0.58519,-1.12 0,-0.463488 -0.24528,-0.590403 -1.14103,-0.590403 -0.62757,0 -1.41957,0.149065 -1.76,0.331257 -0.60471,0.323629 -0.83111,1.26993 -0.40563,1.695408 0.41004,0.410045 2.14121,0.208864 2.72147,-0.316262 z M 204.08,59.814359 c -0.7949,-0.462982 -0.73565,-2.097849 0.0921,-2.540838 1.60946,-0.861357 3.01349,1.156454 1.60071,2.300461 -0.82845,0.670828 -0.92919,0.685136 -1.69279,0.240377 z M 154.24,45.600001 v -5.6 h -1.92 -1.92 V 38.88 37.76 h 5.12 5.12 v 1.12 1.120001 h -1.92 -1.92 v 5.6 5.6 h -1.28 -1.28 z m 7.68,-1.28 V 37.44 h 1.28 1.28 v 2.609597 2.609597 l 0.67359,-0.609597 c 1.02569,-0.92823 3.51194,-0.837792 4.58111,0.16664 1.10916,1.042007 1.46138,2.491722 1.46351,6.023764 l 0.002,2.96 h -1.28 -1.28 v -3.2 c 0,-3.588871 -0.4357,-4.48 -2.19041,-4.48 -1.62122,0 -1.96959,0.782704 -1.96959,4.425196 v 3.254804 h -1.28 -1.28 z m 13.28,6.57471 c -0.87589,-0.362288 -1.96739,-1.590016 -2.37869,-2.675542 -0.89908,-2.372932 0.16392,-5.227021 2.33895,-6.279933 3.11188,-1.506435 5.99219,-0.141655 6.589,3.122073 0.35547,1.943869 0.29605,1.978692 -3.37593,1.978692 -2.74963,0 -3.33333,0.08405 -3.33333,0.48 0,0.86566 1.21955,1.76 2.4,1.76 0.69333,0 1.3638,-0.243808 1.76,-0.64 0.35555,-0.355556 1.06666,-0.64 1.6,-0.64 1.34119,0 1.26805,0.943228 -0.17114,2.206851 -0.9922,0.871161 -1.35577,0.990656 -2.96,0.972864 -1.00588,-0.01117 -2.11686,-0.139408 -2.46886,-0.285005 z m 4.32,-5.911485 c 0,-0.580566 -1.51073,-1.783225 -2.24,-1.783225 -0.72928,0 -2.24,1.202659 -2.24,1.783225 0,0.352199 0.51284,0.456775 2.24,0.456775 1.72715,0 2.24,-0.104576 2.24,-0.456775 z m 4.35992,-13.754241 c -4.78201,-1.778195 -5.80633,-9.032807 -1.71591,-12.152725 2.89832,-2.210656 7.87544,-1.459327 9.36081,1.413077 0.77171,1.492319 0.62582,1.910663 -0.66631,1.910663 -0.89003,0 -1.37419,-0.246729 -2.19779,-1.12 -0.83552,-0.885913 -1.30253,-1.12 -2.2344,-1.12 -2.21183,0 -3.5672,1.181338 -4.15232,3.619161 -0.34647,1.443515 0.12607,3.055349 1.2429,4.239534 0.92538,0.981185 1.22047,1.101305 2.7055,1.101305 1.42536,0 1.8059,-0.139069 2.62683,-0.96 0.7459,-0.745902 1.24478,-0.96 2.23694,-0.96 1.17838,0 1.25938,0.05558 1.04927,0.72 -0.41349,1.307558 -1.17646,2.188324 -2.46516,2.845769 -1.66398,0.848901 -4.20623,1.052275 -5.79036,0.463216 z m 18.89889,0.0057 C 199.82754,30.137894 199.36,28.974861 199.36,22.730278 V 17.92 h 1.28 1.28 v 4.814546 c 0,4.685073 0.0211,4.835668 0.78545,5.6 1.12498,1.124978 3.28229,1.105307 4.35877,-0.03975 0.73738,-0.784364 0.78119,-1.061486 0.88513,-5.6 l 0.10934,-4.7748 h 1.28485 1.28484 l -0.12016,4.88 c -0.13556,5.505304 -0.5686,6.950831 -2.39734,8.002512 -1.37927,0.793193 -3.82682,0.991571 -5.33207,0.432172 z m 27.78118,0.0758 c -1.25592,-0.686935 -1.44,-1.261115 -1.44,-4.491647 V 23.68 h -1.12 c -1.03111,0 -1.12,-0.07619 -1.12,-0.96 0,-0.850801 0.10792,-0.96 0.94875,-0.96 1.00849,0 1.61125,-0.710393 1.61125,-1.898963 0,-0.542137 0.20146,-0.661037 1.12,-0.661037 1.09334,0 1.12,0.03048 1.12,1.28 0,1.249524 0.0267,1.28 1.12,1.28 1.03111,0 1.12,0.07619 1.12,0.96 0,0.88381 -0.0889,0.96 -1.12,0.96 h -1.12 v 2.858436 c 0,2.525364 0.0707,2.88088 0.60687,3.051047 0.33377,0.105935 0.79835,0.151639 1.0324,0.101563 0.57293,-0.122581 0.77197,1.363532 0.22873,1.707865 -0.59678,0.378276 -2.2227,0.330159 -2.988,-0.08842 z M 151.36,24.64 v -6.72 h 1.52647 1.52648 l 1.69307,3.92 c 2.69059,6.229596 2.1945,6.147547 4.54225,0.75125 L 162.68058,17.92 h 1.5397 1.53972 v 6.72 6.72 h -1.27097 -1.27097 l -0.089,-4.376101 -0.089,-4.376101 -1.56218,3.576101 L 159.9157,29.76 h -1.34565 -1.34564 l -1.73218,-3.6 -1.73217,-3.6 -0.089,4.4 -0.089,4.4 H 152.47097 151.36 Z m 16.96,0 v -6.72 l 3.28,5.12e-4 c 3.91144,6.08e-4 5.21327,0.491978 6.09784,2.301686 0.80223,1.641248 0.45776,3.304633 -0.96381,4.654063 l -1.09164,1.036247 1.48472,2.723753 1.48472,2.723754 -1.38592,-0.0047 -1.38591,-0.0047 -1.29043,-2.475253 c -1.2265,-2.35262 -1.34936,-2.480173 -2.48,-2.574569 L 170.88,26.201366 V 28.780684 31.36 h -1.28 -1.28 z m 6.51618,-1.121894 c 0.79715,-0.797158 0.93594,-1.729846 0.38298,-2.573774 C 174.7686,20.256696 174.46945,20.16 172.79262,20.16 H 170.88 V 22.08 24 h 1.73714 c 1.12049,0 1.9082,-0.171061 2.21904,-0.481894 z M 212.47999,26.56 v -4.8 h 1.13005 c 0.71769,0 1.1984,0.178133 1.31737,0.488168 0.13731,0.357839 0.29722,0.396966 0.59894,0.146556 0.82102,-0.681385 2.48731,-0.954171 3.75059,-0.614004 2.01491,0.542558 2.48042,1.664078 2.48186,5.97928 l 0.001,3.6 h -1.28 -1.28 v -3.341854 c 0,-3.090621 -0.0535,-3.379305 -0.7112,-3.84 -1.00227,-0.702017 -1.75524,-0.62079 -2.66334,0.287309 -0.72423,0.724225 -0.78546,1.023569 -0.78546,3.84 V 31.36 h -1.28 -1.28 z m 11.2,0 v -4.8 h 1.28 1.28 v 4.8 4.8 h -1.28 -1.28 z m 0.064,-6.464 c -0.8976,-0.897599 -0.22135,-2.496 1.056,-2.496 0.85775,0 1.44,0.582253 1.44,1.44 0,0.857747 -0.58225,1.44 -1.44,1.44 -0.3696,0 -0.8448,-0.1728 -1.056,-0.384 z"
         id="path30494" />
    </g>
  </g>
</svg>
